<?xml version="1.0" standalone="no"?>
<!DOCTYPE svg PUBLIC "-//W3C//DTD SVG 20010904//EN"
 "http://www.w3.org/TR/2001/REC-SVG-20010904/DTD/svg10.dtd">
<svg version="1.0" xmlns="http://www.w3.org/2000/svg"
 width="300.000000pt" height="300.000000pt" viewBox="0 0 300.000000 300.000000"
 preserveAspectRatio="xMidYMid meet">
<metadata>
Created by potrace 1.11, written by Peter Selinger 2001-2013
</metadata>
<g transform="translate(0.000000,300.000000) scale(0.100000,-0.100000)"
fill="#000000" stroke="none">
<path d="M1375 2990 c-659 -57 -1196 -533 -1340 -1190 -22 -101 -31 -392 -16
-502 25 -171 69 -313 144 -463 174 -350 492 -629 852 -750 377 -127 788 -102
1140 70 153 74 269 158 401 289 224 224 355 469 416 779 28 146 30 384 4 532
-137 764 -833 1302 -1601 1235z m256 -70 c633 -64 1137 -517 1271 -1143 31
-146 31 -408 0 -554 -75 -350 -270 -658 -551 -868 -424 -319 -1012 -371 -1487
-132 -601 302 -911 984 -744 1633 160 618 713 1054 1361 1073 26 0 93 -4 150
-9z"/>
<path d="M1290 2805 c-257 -44 -488 -153 -669 -317 -46 -42 -49 -48 -23 -48
58 0 79 -64 41 -126 l-21 -34 49 0 c84 0 115 -49 73 -118 -11 -18 -20 -35 -20
-37 0 -3 20 -5 45 -5 35 0 52 -6 70 -25 30 -29 31 -40 5 -88 l-20 -37 30 0
c37 0 85 -23 94 -45 3 -9 6 -37 6 -62 0 -53 11 -66 172 -195 140 -113 154
-136 127 -212 -10 -29 -5 -41 97 -211 59 -99 109 -181 110 -183 1 -2 13 3 26
12 12 8 64 29 113 47 136 47 164 64 241 147 70 73 73 75 109 69 49 -8 77 -35
131 -127 51 -87 56 -125 19 -168 -20 -24 -41 -34 -98 -47 -100 -23 -127 -38
-215 -118 -42 -38 -89 -79 -104 -90 -19 -14 -28 -30 -28 -49 0 -21 -10 -35
-42 -58 -51 -37 -80 -45 -107 -30 -18 9 -34 6 -84 -13 -34 -13 -96 -36 -137
-52 -64 -24 -85 -38 -148 -102 -40 -41 -85 -78 -98 -84 -55 -20 -96 11 -163
126 -67 114 -50 180 50 204 125 31 146 41 223 109 42 37 96 82 119 101 23 19
41 37 40 41 -1 4 -50 87 -108 184 -74 123 -112 176 -124 176 -35 0 -80 22 -96
46 -9 13 -29 93 -45 177 -16 83 -39 179 -51 211 -11 33 -18 68 -16 78 4 15 -1
18 -27 18 -97 0 -135 53 -101 141 5 13 -2 18 -33 22 -64 11 -90 55 -68 117
l13 39 -39 6 c-58 10 -82 37 -75 89 3 22 8 48 11 56 5 12 0 16 -23 15 -34 0
-83 -56 -155 -177 -118 -200 -174 -395 -183 -633 -16 -466 196 -885 582 -1145
215 -145 466 -220 735 -220 350 0 661 125 923 370 37 34 67 67 67 72 0 5 -135
235 -301 511 -165 275 -303 513 -306 529 -4 19 0 35 12 48 17 19 16 21 -25 70
-62 74 -79 80 -198 73 -124 -7 -176 5 -235 58 -49 42 -137 165 -167 231 -36
80 -21 180 38 241 37 39 434 276 491 294 85 26 178 -6 232 -80 46 -63 118
-210 130 -267 14 -67 -5 -131 -71 -235 -27 -43 -50 -88 -50 -100 1 -11 11 -49
24 -85 22 -62 24 -65 55 -65 24 0 40 -8 59 -30 15 -17 139 -218 277 -448 169
-283 252 -412 257 -403 23 41 79 233 93 316 19 121 19 318 0 438 -90 555 -535
997 -1095 1087 -113 18 -315 18 -420 0z"/>
<path d="M1770 2512 c-68 -36 -262 -151 -313 -187 -39 -26 -67 -76 -67 -118 0
-39 48 -121 108 -185 68 -72 101 -82 185 -58 41 12 62 13 82 6 44 -17 88 -11
130 18 32 23 41 36 47 72 6 32 19 55 48 85 72 73 73 125 9 262 -62 130 -127
160 -229 105z"/>
</g>
</svg>
