<?xml version="1.0" encoding="UTF-8" standalone="no"?>
<svg
   xmlns:dc="http://purl.org/dc/elements/1.1/"
   xmlns:cc="http://creativecommons.org/ns#"
   xmlns:rdf="http://www.w3.org/1999/02/22-rdf-syntax-ns#"
   xmlns:svg="http://www.w3.org/2000/svg"
   xmlns="http://www.w3.org/2000/svg"
   id="svg2601"
   version="1.1"
   viewBox="0 0 5.2916665 5.2916668"
   height="20"
   width="20">
  <defs
     id="defs2595" />
  <metadata
     id="metadata2598">
    <rdf:RDF>
      <cc:Work
         rdf:about="">
        <dc:format>image/svg+xml</dc:format>
        <dc:type
           rdf:resource="http://purl.org/dc/dcmitype/StillImage" />
        <dc:title></dc:title>
      </cc:Work>
    </rdf:RDF>
  </metadata>
  <g
     transform="translate(0,-291.70832)"
     id="layer1">
    <g
       id="g1969"
       transform="matrix(0.00859994,0,0,0.00859994,0.45379687,292.11477)">
      <g
         id="g1967">
        <path
           id="path1965"
           d="M 504.45,365.901 C 444.23,305.664 435.168,275.439 435.168,179.2 435.168,80.23 354.955,0 256.002,0 157.049,0 76.836,80.231 76.836,179.2 c 0,51.891 -1.382,71.262 -8.525,95.044 -8.883,29.628 -27.119,57.993 -60.766,91.657 -16.119,16.128 -4.701,43.699 18.1,43.699 h 142.054 l -1.289,12.8 c 0,49.485 40.107,89.6 89.583,89.6 49.476,0 89.583,-40.115 89.583,-89.6 l -1.289,-12.8 H 486.35 c 22.81,0 34.228,-27.571 18.1,-43.699 z M 256.01,486.4 c -35.337,0 -63.991,-28.663 -63.991,-64 l 1.289,-12.8 h 125.389 l 1.306,12.8 c -10e-4,35.337 -28.656,64 -63.993,64 z M 25.653,384 c 76.783,-76.8 76.783,-128 76.783,-204.8 0,-84.821 68.753,-153.6 153.566,-153.6 84.813,0 153.566,68.779 153.574,153.6 0,76.8 0,128 76.783,204.8 z"
           style="fill:#fe4c4c" />
      </g>
    </g>
  </g>
</svg>
