<?xml version="1.0" encoding="UTF-8"?>
<svg width="20" height="20" version="1.1" viewBox="0 0 5.2916665 5.2916668" xmlns="http://www.w3.org/2000/svg" xmlns:cc="http://creativecommons.org/ns#" xmlns:dc="http://purl.org/dc/elements/1.1/" xmlns:rdf="http://www.w3.org/1999/02/22-rdf-syntax-ns#">
<metadata>
<rdf:RDF>
<cc:Work rdf:about="">
<dc:format>image/svg+xml</dc:format>
<dc:type rdf:resource="http://purl.org/dc/dcmitype/StillImage"/>
<dc:title/>
</cc:Work>
</rdf:RDF>
</metadata>
<g transform="translate(0 -291.71)">
<g transform="matrix(.0071804 0 0 .0071804 .3632 292.23)" fill="#fd4d4d">
<path d="m293.55 569.53c-14.568-16.425-50.945-48.445-80.837-71.156-88.568-67.291-100.62-77.029-136.58-110.34-66.295-61.416-94.449-123.12-94.353-206.78 0.04707-40.841 2.814-56.576 14.182-80.65 19.287-40.843 47.698-71.193 84.021-89.755 25.726-13.147 38.415-18.988 81.376-19.227 44.941-0.24987 54.401 5.0219 80.837 19.633 32.177 17.784 65.296 55.793 72.142 82.792l4.2284 16.676 10.428-22.966c58.925-129.78 247.05-127.84 312.52 3.2257 20.769 41.578 23.049 130.36 4.6324 180.37-24.024 65.235-69.146 114.97-173.45 191.18-68.406 49.981-145.83 125.6-151.22 136.22-6.2562 12.329-0.29841 1.9322-27.929-29.219z" fill="#fd4d4d" stroke-width="1.0608"/>
</g>
</g>
</svg>