<?xml version="1.0" encoding="UTF-8"?>
<svg width="202px" height="43px" viewBox="0 0 1018.9602 176.43372" xmlns="http://www.w3.org/2000/svg">
<defs>
<clipPath id="a">
<path d="m0 600h3200v-600h-3200z"/>
</clipPath>
</defs>
<g transform="translate(613.05 43.705)">
<g transform="matrix(.35278 0 0 -.35278 -655.38 150.37)">
<g clip-path="url(#a)">
<g transform="translate(370,550)">
<path d="m0 0c-137.85 0-250-112.15-250-250s112.15-250 250-250 250 112.15 250 250-112.15 250-250 250" fill="#fff"/>
</g>
<g transform="translate(457.53 442.84)">
<path d="m0 0c-4.422 9.017-6.986 19.332-15.209 25.818-16.848 13.26-34.054-3.365-48.784-12.104-1.336-0.792-2.667-1.576-3.998-2.346-1.312-0.816-2.631-1.621-3.945-2.418-14.645-8.879-37.421-16.234-33.65-37.337 1.842-10.312 9.741-17.428 15.607-25.579 6.447-8.963 16.287-15.882 27.815-13.173 4.996 1.171 9.583 3.941 14.871 3.632 8.115-0.457 11.193-6.553 19.304-1.688l2.643 1.585s1.785 1.071 3.424 2.054l2.651 1.589c8.097 4.856 4.175 10.446 7.581 17.813 2.223 4.814 6.82 7.552 10.207 11.408 7.832 8.903 6.368 20.846 1.483 30.746" fill="#f66"/>
</g>
<g transform="translate(370.18 79.128)">
<path d="m0 0c-59.031 0-114.53 22.988-156.27 64.729s-64.729 97.24-64.729 156.27c0 52.699 18.859 103.64 53.144 143.66 2.158-0.465 4.541-0.685 7.347-0.685 0.962 0 1.921 0.024 2.868 0.059-2.822-5.054-5.543-12.541-3.652-18.487 1.161-3.648 3.885-6.177 7.879-7.313 2.594-0.752 5.449-1.105 8.97-1.105 0.979 0 1.955 0.026 2.919 0.063-2.822-5.079-5.553-12.606-3.653-18.528 1.164-3.629 3.884-6.146 7.867-7.279 2.584-0.753 5.426-1.106 8.923-1.106 0.993 0 1.982 0.027 2.959 0.065-2.821-5.066-5.548-12.572-3.657-18.501 1.162-3.644 3.886-6.173 7.879-7.316 2.59-0.741 5.433-1.087 8.946-1.087 1.674 0 3.34 0.074 4.953 0.146 0.47 0.021 0.933 0.042 1.389 0.06 0.097-1.044 0.047-2.183-6e-3 -3.383-0.055-1.276-0.114-2.595-6e-3 -3.967 0.231-3.407 0.9-6.28 2.04-8.752l0.049-0.102c0.22-0.432 1.409-2.617 2.48-4.499 0.367-2.231 1.387-6.231 1.576-6.964 2.023-9.625 4.035-19.707 5.979-29.968 0.258-1.365 0.491-3.002 0.737-4.735 1.366-9.604 3.429-24.116 15.434-25.681 1.65-0.211 3.153-0.233 4.607-0.256 1.46-0.021 2.857-0.042 4.274-0.262l37.183-61.996-2.033-1.22c-7.385-4.429-13.722-10.468-19.85-16.308-9.279-8.844-18.043-17.198-30.066-20.27-2.106-0.529-4.248-0.932-6.516-1.357-4.191-0.788-8.524-1.603-12.677-3.294-4.968-2.051-7.961-5.609-9.162-10.885-1.826-7.995 3.182-15.582 7.207-21.679 0.43-0.653 0.855-1.294 1.263-1.927 0.365-0.656 0.731-1.333 1.104-2.02 3.481-6.418 7.813-14.405 15.732-16.567 1.537-0.414 3.029-0.622 4.446-0.622 3.432 0 6.617 1.214 9.469 3.61 3.443 2.853 6.211 6.293 8.888 9.617 1.441 1.791 2.802 3.482 4.265 5.093 8.366 9.165 19.866 12.966 32.04 16.992 8.032 2.655 16.338 5.4 23.731 9.834 0.019 0.012 0.176 0.105 0.441 0.264 1.742-2.68 4.761-4.331 7.958-4.331 1.702 0 3.374 0.464 4.837 1.342l11.105 6.661c2.183 1.308 3.72 3.383 4.326 5.842 0.578 2.337 0.252 4.762-0.914 6.867 0.236 0.142 0.382 0.229 0.414 0.248 7.401 4.439 13.73 10.471 19.85 16.303 9.278 8.842 18.042 17.194 30.062 20.254 2.128 0.54 4.276 0.951 6.551 1.384 4.195 0.801 8.534 1.63 12.696 3.336 4.859 1.942 7.944 5.593 9.145 10.843 1.804 7.972-3.165 15.527-7.157 21.599-0.448 0.681-0.889 1.351-1.313 2.009-0.381 0.684-0.764 1.389-1.154 2.104-3.479 6.385-7.807 14.332-15.68 16.484-1.515 0.417-3.01 0.63-4.438 0.63-3.407 0-6.586-1.2-9.45-3.566-3.461-2.875-6.225-6.314-8.9-9.637-1.456-1.812-2.832-3.523-4.315-5.154-8.356-9.148-19.848-12.943-32.015-16.961-8.033-2.652-16.339-5.395-23.728-9.826-0.072-0.044-0.839-0.504-2.004-1.203l-37.186 62.002c0.465 1.341 1.103 2.579 1.769 3.871 0.668 1.299 1.359 2.641 1.944 4.193 4.293 11.371-7.617 20.035-15.498 25.768-1.386 1.008-2.694 1.96-3.762 2.811-8.607 6.95-16.333 13.314-23.603 19.442-0.106 0.089-0.321 0.282-0.621 0.548-2.654 2.361-4.165 3.641-5.14 4.335-1.341 2.213-2.479 4.56-2.333 6.993l0.032 0.487c0.423 6.41 1.062 16.097-8.355 19.538-2.439 0.907-5.138 1.332-8.479 1.332-1.993 0-3.958-0.149-5.862-0.302 0.548 1.271 1.237 2.501 2.101 3.763l0.16 0.237c2.357 3.495 5.92 8.775 3.671 14.778-1.714 4.509-5.884 6.789-12.399 6.789-0.544 0-1.075-0.015-1.583-0.038-0.98-0.043-1.962-0.091-2.945-0.14-1.892-0.093-3.829-0.189-5.769-0.24 0.365 1.241 0.771 2.226 1.27 3.108 0.458 0.812 1.042 1.687 1.659 2.615 2.476 3.716 5.867 8.806 3.679 14.725-1.721 4.53-5.907 6.813-12.451 6.813-0.529 0-1.045-0.014-1.538-0.035-0.983-0.044-1.964-0.091-2.943-0.139-1.897-0.093-3.835-0.187-5.778-0.243 0.367 1.243 0.775 2.241 1.277 3.146 0.435 0.762 1.013 1.623 1.624 2.535 2.496 3.72 5.913 8.815 3.706 14.773-1.188 3.119-4.275 6.805-12.295 6.805-0.588 0-1.162-0.018-1.708-0.046l-0.93-0.039c19.316 19.213 41.678 34.502 66.573 45.503 28.135 12.433 58.122 18.738 89.127 18.738 59.031 0 114.53-22.988 156.27-64.73 41.74-41.741 64.729-97.239 64.729-156.27 0-32.247-6.789-63.278-20.185-92.321l-85.898 143.22-0.108 0.139c-1.819 2.358-5.207 6.748-10.491 6.748-1.044 0-2.121-0.172-3.2-0.512-0.128-0.04-0.552-0.193-1.123-0.406-0.396-0.147-1.17-0.434-1.946-0.711-0.923 2.457-2.521 6.81-4.779 13.017l-0.547 1.502c-3.109 8.612-4.509 13.482 0.359 21.355 1.366 2.21 2.835 4.42 4.255 6.557 2.75 4.14 5.593 8.422 7.949 13.058 5.534 10.963 6.612 19.828 3.722 30.604-2.459 9.125-7.011 17.435-11.414 25.473l-1.104 2.018c-5.658 10.41-11.579 20.149-21.714 24.86-4.701 2.174-9.887 3.321-15.007 3.321-2.369 0-4.739-0.242-7.044-0.719-6.59-1.362-13.811-5.15-18.709-8.088l-52.14-31.271c-4.905-2.943-11.655-7.534-15.952-12.701-4.799-5.758-7.669-13.101-8.082-20.675-0.673-12.051 6.47-22.929 11.686-30.873l1.293-1.971c5.012-7.651 10.195-15.562 17.077-22.009 8.158-7.636 16.488-10.859 28.754-11.125 0.518-0.011 1.034-0.017 1.551-0.017 4.644 0 9.244 0.443 13.693 0.871 2.556 0.246 5.197 0.5 7.79 0.663 0.669 0.042 1.32 0.064 1.936 0.064 7.865 0 11.45-3.544 17.109-9.807 0.158-0.18 0.873-0.979 1.872-2.096 1.885-2.105 6.062-6.772 8.401-9.431-0.615-0.558-1.239-1.111-1.559-1.393-0.449-0.398-0.778-0.694-0.878-0.792-5.32-5.221-2.468-11.584-0.936-15.002l0.073-0.163s90.442-150.8 100.28-167.21c-42.03-47.809-102.4-75.183-165.99-75.183" fill="#f66"/>
</g>
<g transform="translate(370.18 62.322)">
<path d="m0 0c-131.12 0-237.8 106.68-237.8 237.8s106.68 237.8 237.8 237.8 237.8-106.68 237.8-237.8-106.68-237.8-237.8-237.8m0 487.8c-137.85 0-250-112.15-250-250s112.15-250 250-250 250 112.15 250 250-112.15 250-250 250" fill="#f66"/>
</g>
<g transform="translate(884.02 256.82)">
<path d="m0 0c0 20.394-10.005 30.765-29.683 30.765h-40.054v-73.683h44.349c19.312 0 25.388 11.454 25.388 26.104zm-2.148 105.16c0 15.016-5.709 26.453-25.387 26.453h-42.202v-71.519h37.906c19.678 0 29.683 10.372 29.683 30.399zm-23.606-179.91h-82.257v238.22h80.127c46.846 0 62.945-23.258 62.945-58.668v-8.94c0-28.251-12.17-43.284-35.41-47.562 26.819-4.662 38.622-22.175 38.622-48.296v-16.099c0-35.41-17.163-58.65-64.027-58.65" fill="#fff"/>
</g>
<g transform="translate(1083.6 361.99)">
<path d="m0 0c0 15.016-6.076 26.453-25.737 26.453h-42.219v-75.814h38.273c19.311 0 29.683 10.372 29.683 30.748zm43.634-182.78c-31.464 0-42.202 8.591-42.202 35.777v38.972c0 18.613-8.224 31.132-28.601 31.132h-40.787v-103.02h-37.907v238.21h80.126c46.847 0 64.011-23.258 64.011-58.668v-16.098c0-26.453-9.656-41.487-36.476-46.131 26.471-2.864 37.558-24.323 37.558-45.066v-36.492c0-6.426 3.58-9.289 11.803-9.289v-29.334z" fill="#fff"/>
</g>
<path d="m1181.5 420.29h37.907v-238.21h-37.907z" fill="#fff"/>
<g transform="translate(1410 182.08)">
<path d="m0 0-68.323 113.74-24.323 43.634v-157.37h-35.759v238.21h29.334l66.525-115.88 23.24-43.634v159.52h35.776v-238.21z" fill="#fff"/>
</g>
<g transform="translate(1627.1 182.08)">
<path d="m0 0-6.076 20.027c-9.656-17.163-28.985-26.103-54.006-26.103-50.792 0-71.902 34.694-71.902 73.317v103.73c0 38.622 23.606 72.95 76.896 72.95 53.656 0 73.683-30.032 73.683-72.95v-5.012h-36.475v8.574c0 18.962-10.371 36.492-37.208 36.492-26.819 0-38.972-18.595-38.972-37.558v-109.09c0-18.595 12.153-37.191 38.972-37.191 26.837 0 38.989 18.596 38.989 37.191v28.251h-37.906v31.848h73.683v-124.48z" fill="#fff"/>
</g>
<g transform="translate(1812.6 327.98)">
<path d="m0 0c-36.335-2.706-53.324-11.21-53.324-31.237v-1.03c0-10.529 7.141-19.696 20.725-19.696 15.959 0 32.599 10.197 32.599 25.807zm31.586-77.106c-12.903 0-23.764 5.448-23.432 22.088-10.86-13.934-27.849-22.088-46.532-22.088-27.169 0-45.52 16.308-45.52 42.796v2.043c0 40.77 42.132 49.256 83.898 51.98v20.027c0 13.584-7.473 21.407-23.083 21.407-18.351 0-22.768-7.142-22.768-23.1v-4.75h-31.255v5.762c0 26.505 16.658 48.575 53.674 48.575 41.102 0 54.005-24.113 54.005-55.367v-76.076c0-6.111 3.405-9.166 11.21-9.166v-24.131z" fill="#fff"/>
</g>
<g transform="translate(2037.9 256.82)">
<path d="m0 0c0 20.394-10.005 30.765-29.683 30.765h-40.054v-73.683h44.349c19.312 0 25.388 11.454 25.388 26.104zm-2.148 105.16c0 15.016-5.709 26.453-25.387 26.453h-42.202v-71.519h37.906c19.679 0 29.683 10.372 29.683 30.399zm-23.606-179.91h-82.257v238.22h80.127c46.846 0 62.945-23.258 62.945-58.668v-8.94c0-28.251-12.17-43.284-35.41-47.562 26.819-4.662 38.623-22.175 38.623-48.296v-16.099c0-35.41-17.164-58.65-64.028-58.65" fill="#fff"/>
</g>
<g transform="translate(2243.9 351.62)">
<path d="m0 0c0 24.323-12.153 41.486-38.99 41.486-26.47 0-38.622-17.163-38.622-41.486v-100.87c0-24.322 12.152-41.486 38.622-41.486 26.837 0 38.99 17.164 38.99 41.486zm-38.99-175.62c-53.289 0-76.896 33.262-76.896 77.245v95.859c0 43.634 23.607 76.896 76.896 76.896 53.657 0 76.897-33.262 76.897-76.896v-95.859c0-43.983-23.24-77.245-76.897-77.245" fill="#fff"/>
</g>
<g transform="translate(2418.8 385.95)">
<path d="m0 0v-203.87h-37.907v203.87h-57.951v34.345h153.81v-34.345z" fill="#fff"/>
</g>
<g transform="translate(2605 385.95)">
<path d="m0 0v-203.87h-37.907v203.87h-57.951v34.345h153.81v-34.345z" fill="#fff"/>
</g>
<g transform="translate(2707.7 182.08)">
<path d="m0 0v238.21h37.907v-204.24h88.717v-33.978z" fill="#fff"/>
</g>
<g transform="translate(2879.6 182.08)">
<path d="m0 0v238.21h128.75v-33.978h-90.847v-62.596h65.459v-32.197h-65.459v-75.465h90.847v-33.978z" fill="#fff"/>
</g>
<path d="m1720.8 215.65h149.14v-33.024h-149.14z" fill="#fff"/>
</g>
</g>
</g>
</svg>
