<?xml version="1.0" encoding="UTF-8"?>
<svg width="114px" height="14px" version="1.1" viewBox="0 0 787.53491 88.194511" xmlns="http://www.w3.org/2000/svg" xmlns:cc="http://creativecommons.org/ns#" xmlns:dc="http://purl.org/dc/elements/1.1/" xmlns:rdf="http://www.w3.org/1999/02/22-rdf-syntax-ns#">
<metadata>
<rdf:RDF>
<cc:Work rdf:about="">
<dc:format>image/svg+xml</dc:format>
<dc:type rdf:resource="http://purl.org/dc/dcmitype/StillImage"/>
<dc:title/>
</cc:Work>
</rdf:RDF>
</metadata>
<g transform="translate(287.93 -104.74)" fill="#fff">
<g transform="matrix(.35278 0 0 -.35278 -249.83 164.42)">
<path d="m0 0c0 20.394-10.005 30.765-29.683 30.765h-40.054v-73.683h44.349c19.312 0 25.388 11.454 25.388 26.104zm-2.148 105.16c0 15.016-5.709 26.453-25.387 26.453h-42.202v-71.519h37.906c19.678 0 29.683 10.372 29.683 30.399zm-23.606-179.91h-82.257v238.22h80.127c46.846 0 62.945-23.258 62.945-58.668v-8.94c0-28.251-12.17-43.284-35.41-47.562 26.819-4.662 38.622-22.175 38.622-48.296v-16.099c0-35.41-17.163-58.65-64.027-58.65" fill="#fff"/>
</g>
<g transform="matrix(.35278 0 0 -.35278 -179.44 127.32)">
<path d="m0 0c0 15.016-6.076 26.453-25.737 26.453h-42.219v-75.814h38.273c19.311 0 29.683 10.372 29.683 30.748zm43.634-182.78c-31.464 0-42.202 8.591-42.202 35.777v38.972c0 18.613-8.224 31.132-28.601 31.132h-40.787v-103.02h-37.907v238.21h80.126c46.847 0 64.011-23.258 64.011-58.668v-16.098c0-26.453-9.656-41.487-36.476-46.131 26.471-2.864 37.558-24.323 37.558-45.066v-36.492c0-6.426 3.58-9.289 11.803-9.289v-29.334z" fill="#fff"/>
</g>
<path d="m-144.88 106.75h13.373v84.037h-13.373z"/>
<g transform="matrix(.35278 0 0 -.35278 -64.263 190.79)">
<path d="m0 0-68.323 113.74-24.323 43.634v-157.37h-35.759v238.21h29.334l66.525-115.88 23.24-43.634v159.52h35.776v-238.21z" fill="#fff"/>
</g>
<g transform="matrix(.35278 0 0 -.35278 12.308 190.79)">
<path d="m0 0-6.076 20.027c-9.656-17.163-28.985-26.103-54.006-26.103-50.792 0-71.902 34.694-71.902 73.317v103.73c0 38.622 23.606 72.95 76.896 72.95 53.656 0 73.683-30.032 73.683-72.95v-5.012h-36.475v8.574c0 18.962-10.371 36.492-37.208 36.492-26.819 0-38.972-18.595-38.972-37.558v-109.09c0-18.595 12.153-37.191 38.972-37.191 26.837 0 38.989 18.596 38.989 37.191v28.251h-37.906v31.848h73.683v-124.48z" fill="#fff"/>
</g>
<g transform="matrix(.35278 0 0 -.35278 77.754 139.32)">
<path d="m0 0c-36.335-2.706-53.324-11.21-53.324-31.237v-1.03c0-10.529 7.141-19.696 20.725-19.696 15.959 0 32.599 10.197 32.599 25.807zm31.586-77.106c-12.903 0-23.764 5.448-23.432 22.088-10.86-13.934-27.849-22.088-46.532-22.088-27.169 0-45.52 16.308-45.52 42.796v2.043c0 40.77 42.132 49.256 83.898 51.98v20.027c0 13.584-7.473 21.407-23.083 21.407-18.351 0-22.768-7.142-22.768-23.1v-4.75h-31.255v5.762c0 26.505 16.658 48.575 53.674 48.575 41.102 0 54.005-24.113 54.005-55.367v-76.076c0-6.111 3.405-9.166 11.21-9.166v-24.131z" fill="#fff"/>
</g>
<g transform="matrix(.35278 0 0 -.35278 157.25 164.42)">
<path d="m0 0c0 20.394-10.005 30.765-29.683 30.765h-40.054v-73.683h44.349c19.312 0 25.388 11.454 25.388 26.104zm-2.148 105.16c0 15.016-5.709 26.453-25.387 26.453h-42.202v-71.519h37.906c19.679 0 29.683 10.372 29.683 30.399zm-23.606-179.91h-82.257v238.22h80.127c46.846 0 62.945-23.258 62.945-58.668v-8.94c0-28.251-12.17-43.284-35.41-47.562 26.819-4.662 38.623-22.175 38.623-48.296v-16.099c0-35.41-17.164-58.65-64.028-58.65" fill="#fff"/>
</g>
<g transform="matrix(.35278 0 0 -.35278 229.91 130.98)">
<path d="m0 0c0 24.323-12.153 41.486-38.99 41.486-26.47 0-38.622-17.163-38.622-41.486v-100.87c0-24.322 12.152-41.486 38.622-41.486 26.837 0 38.99 17.164 38.99 41.486zm-38.99-175.62c-53.289 0-76.896 33.262-76.896 77.245v95.859c0 43.634 23.607 76.896 76.896 76.896 53.657 0 76.897-33.262 76.897-76.896v-95.859c0-43.983-23.24-77.245-76.897-77.245" fill="#fff"/>
</g>
<g transform="matrix(.35278 0 0 -.35278 291.59 118.87)">
<path d="m0 0v-203.87h-37.907v203.87h-57.951v34.345h153.81v-34.345z" fill="#fff"/>
</g>
<g transform="matrix(.35278 0 0 -.35278 357.31 118.87)">
<path d="m0 0v-203.87h-37.907v203.87h-57.951v34.345h153.81v-34.345z" fill="#fff"/>
</g>
<g transform="matrix(.35278 0 0 -.35278 393.51 190.79)">
<path d="m0 0v238.21h37.907v-204.24h88.717v-33.978z" fill="#fff"/>
</g>
<g transform="matrix(.35278 0 0 -.35278 454.18 190.79)">
<path d="m0 0v238.21h128.75v-33.978h-90.847v-62.596h65.459v-32.197h-65.459v-75.465h90.847v-33.978z" fill="#fff"/>
</g>
<path d="m45.362 178.94h52.612v11.65h-52.612z"/>
</g>
</svg>