<?xml version="1.0" encoding="UTF-8"?>
<svg width="194" height="41" version="1.1" viewBox="0 0 51.329167 10.847917" xmlns="http://www.w3.org/2000/svg" xmlns:cc="http://creativecommons.org/ns#" xmlns:dc="http://purl.org/dc/elements/1.1/" xmlns:rdf="http://www.w3.org/1999/02/22-rdf-syntax-ns#" xmlns:xlink="http://www.w3.org/1999/xlink">
<defs>
<clipPath id="a">
<use width="100%" height="100%" overflow="visible" xlink:href="#a"/>
</clipPath>
</defs>
<metadata>
<rdf:RDF>
<cc:Work rdf:about="">
<dc:format>image/svg+xml</dc:format>
<dc:type rdf:resource="http://purl.org/dc/dcmitype/StillImage"/>
<dc:title/>
</cc:Work>
</rdf:RDF>
</metadata>
<g transform="translate(-115.98 -178.82)">
<path d="m142.93 182.29v-6.6e-4h0.24069l0.0879 0.0175c0.0586 0.0115 0.11186 0.0264 0.15968 0.045 0.0478 0.0185 0.0941 0.0402 0.13886 0.0648 0.0447 0.0247 0.0853 0.0498 0.12174 0.0754 0.0361 0.0253 0.0685 0.0521 0.0972 0.0805 0.0284 0.0287 0.0727 0.0361 0.13283 0.0223 0.0602-0.0139 0.12498-0.0332 0.19441-0.0579 0.0694-0.0247 0.13809-0.0525 0.20597-0.0833 0.0679-0.0309 0.10924-0.0505 0.12405-0.0588 0.0145-9e-3 0.0222-0.0133 0.0232-0.0139l8e-4 -1e-3 5e-3 -2e-3 5e-3 -2e-3 5e-3 -2e-3 5e-3 -2e-3 7.9e-4 -1e-3 1e-3 -6.7e-4 1e-3 -6.6e-4 7.9e-4 -1e-3 5e-3 -1e-3 5e-3 -6.6e-4 -7.9e-4 6e-3 -1e-3 6e-3 -2e-3 6e-3 -2e-3 6e-3 -2e-3 4e-3 -2e-3 4e-3 -2e-3 6e-3c-2e-3 4e-3 -3e-3 0.0112-5e-3 0.0185-2e-3 8e-3 -0.0162 0.0386-0.044 0.0925-0.0278 0.0541-0.0625 0.10872-0.10415 0.16432-0.0416 0.0555-0.079 0.0975-0.112 0.1259-0.0333 0.0287-0.0554 0.0488-0.0662 0.0601-0.0108 0.0117-0.0239 0.0226-0.0393 0.0324l-0.0231 0.0153-5e-3 2e-3 -5e-3 2e-3 -8e-4 1e-3 -1e-3 6.6e-4 -1e-3 6.6e-4 -7.9e-4 1e-3 -5e-3 2e-3 -5e-3 2e-3 -7.9e-4 1e-3 -1e-3 6.7e-4 -1e-3 6.6e-4 -8e-4 1e-3 -7.9e-4 1e-3 -1e-3 6.6e-4 -1e-3 6.6e-4 -8e-4 1e-3h0.0231l0.12959-0.0278c0.0864-0.0185 0.16894-0.0408 0.24763-0.0671l0.12497-0.0417 0.0139-4e-3 7e-3 -2e-3 5e-3 -2e-3 5e-3 -2e-3 5e-3 -2e-3 5e-3 -2e-3 9e-3 -1e-3 9e-3 -6.6e-4v9e-3l-2e-3 6.6e-4 -2e-3 1e-3 -7.9e-4 1e-3 -1e-3 6.6e-4 -1e-3 6.6e-4 -8e-4 1e-3 -7.9e-4 1e-3 -1e-3 6.6e-4 -1e-3 6.7e-4 -7.9e-4 1e-3 -8e-4 1e-3 -1e-3 6.6e-4 -2e-3 4e-3 -2e-3 4e-3 -1e-3 6.6e-4c-2.6e-4 6.6e-4 -0.0202 0.0271-0.0588 0.0787-0.0386 0.0518-0.0594 0.078-0.0625 0.0787-3e-3 6.6e-4 -7e-3 6e-3 -0.013 0.0139-5e-3 9e-3 -0.0379 0.043-0.0981 0.10321-0.0602 0.0601-0.11909 0.11369-0.1768 0.1606-0.058 0.0472-0.0873 0.10523-0.088 0.17403-8e-4 0.0684-4e-3 0.14597-0.0107 0.23236-6e-3 0.0865-0.0178 0.17974-0.0347 0.28003-0.017 0.10029-0.0432 0.2137-0.0787 0.3402-0.0355 0.12651-0.0787 0.24996-0.12961 0.37029-0.0509 0.12035-0.10414 0.22834-0.15968 0.324-0.0555 0.0957-0.10646 0.17666-0.15275 0.24301-0.0463 0.0663-0.0933 0.12882-0.14117 0.18745-0.0478 0.0587-0.1083 0.12467-0.18144 0.19811-0.0734 0.0731-0.11355 0.11325-0.12034 0.12034-7e-3 6e-3 -0.0373 0.0322-0.0907 0.0759-0.0531 0.0441-0.11016 0.0883-0.17126 0.13238-0.0608 0.0438-0.11664 0.0804-0.16755 0.10973-0.0509 0.0292-0.11232 0.0627-0.18422 0.1004-0.0716 0.0379-0.14904 0.0731-0.23236 0.10557-0.0833 0.0324-0.17125 0.0625-0.26383 0.0903-0.0926 0.0278-0.18205 0.0493-0.26845 0.0648-0.0864 0.0154-0.18438 0.0286-0.29392 0.0394l-0.16432 0.0162v2e-3h-0.30069v-2e-3l-0.0393-2e-3c-0.0262-2e-3 -0.0478-4e-3 -0.0648-4e-3 -0.017-2e-3 -0.081-0.0101-0.19208-0.0255-0.11068-0.0154-0.19786-0.0308-0.26111-0.0463-0.0632-0.0154-0.15737-0.0448-0.28235-0.0879-0.12497-0.0432-0.23189-0.0869-0.32076-0.13099-0.0886-0.0438-0.1441-0.0716-0.16663-0.0833-0.0222-0.0113-0.0472-0.0257-0.075-0.0426l-0.0416-0.0255-7.9e-4 -1e-3 -1e-3 -6.7e-4 -1e-3 -6.3e-4 -8e-4 -1e-3 -5e-3 -2e-3 -5e-3 -2e-3 -7.9e-4 -1e-3 -1e-3 -6.6e-4 -1e-3 -6.6e-4 -7.9e-4 -1e-3 -8e-4 -1e-3 -1e-3 -6.6e-4h-2e-3v-9e-3l5e-3 6.6e-4 5e-3 1e-3 0.0208 2e-3c0.0139 2e-3 0.0517 4e-3 0.1134 6e-3 0.0617 4e-3 0.12729 4e-3 0.19672 0 0.0694-4e-3 0.1404-0.0101 0.21291-0.0209 0.0725-0.0113 0.15815-0.0292 0.25689-0.0555 0.0987-0.0263 0.18947-0.0575 0.27217-0.0935 0.0824-0.0364 0.14101-0.0635 0.17588-0.0815 0.0345-0.0175 0.0873-0.0504 0.1583-0.0982l0.10646-0.0717 7.9e-4 -1e-3 1e-3 -6.6e-4 1e-3 -6.7e-4 7.9e-4 -1e-3 8e-4 -1e-3 1e-3 -6.6e-4 1e-3 -6.6e-4 7.9e-4 -1e-3 5e-3 -1e-3 5e-3 -6.6e-4 7.9e-4 -4e-3 1e-3 -4e-3 1e-3 -6.6e-4 8e-4 -1e-3 -0.037-2e-3c-0.0247-2e-3 -0.0486-4e-3 -0.0718-4e-3 -0.0232-2e-3 -0.0594-9e-3 -0.10877-0.0209-0.0494-0.0123-0.10262-0.0308-0.15971-0.0555-0.0571-0.0247-0.11263-0.0541-0.16663-0.0879-0.054-0.034-0.093-0.0622-0.11711-0.0847-0.0239-0.0223-0.0547-0.0537-0.0927-0.0944-0.0376-0.041-0.0703-0.0832-0.0981-0.12637-0.0278-0.0432-0.0543-0.093-0.0796-0.1495l-0.0384-0.0842-2e-3 -6e-3 -2e-3 -6e-3 -1e-3 -4e-3 -7.9e-4 -4e-3 7e-3 6.6e-4 7e-3 1e-3 0.0509 6e-3c0.0339 4e-3 0.0872 6e-3 0.15968 4e-3 0.0725-2e-3 0.12266-4e-3 0.15043-9e-3 0.0278-4e-3 0.0447-8e-3 0.0509-9e-3l9e-3 -2e-3 0.0116-2e-3 0.0116-2e-3 8e-4 -1e-3 1e-3 -6.6e-4 1e-3 -6.6e-4 7.9e-4 -1e-3 -9e-3 -2e-3 -9e-3 -2e-3 -9e-3 -2e-3 -9e-3 -2e-3 -9e-3 -2e-3c-6e-3 -2e-3 -0.017-4e-3 -0.0324-9e-3 -0.0154-4e-3 -0.0571-0.0216-0.12498-0.0509-0.0679-0.0294-0.12188-0.0579-0.16199-0.0857a1.1187 1.1187 0 0 1 -0.11479 -0.0912c-0.0364-0.0334-0.0761-0.0762-0.11926-0.12871-0.0429-0.0523-0.0814-0.1132-0.11539-0.18263-0.0339-0.0695-0.0594-0.13577-0.0764-0.19904a1.0745 1.0745 0 0 1 -0.0333 -0.19209l-8e-3 -0.0973 5e-3 6.7e-4 5e-3 1e-3 5e-3 2e-3 5e-3 2e-3 5e-3 2e-3 5e-3 2e-3 0.0717 0.0324c0.0478 0.0216 0.10723 0.0402 0.1782 0.0555 0.071 0.0154 0.1134 0.0239 0.12729 0.0255l0.0208 2e-3h0.0416l-7.9e-4 -1e-3 -1e-3 -6.6e-4 -1e-3 -6.7e-4 -7.9e-4 -1e-3 -8e-4 -1e-3 -1e-3 -6.6e-4 -1e-3 -6.6e-4 -7.9e-4 -1e-3 -5e-3 -2e-3 -5e-3 -2e-3 -7.9e-4 -1e-3 -1e-3 -6.6e-4 -1e-3 -6.4e-4 -8e-4 -1e-3 -5e-3 -2e-3 -5e-3 -2e-3 -7.9e-4 -1e-3c-8e-4 -4.2e-4 -0.0142-0.0101-0.0398-0.0297-0.0253-0.0195-0.0518-0.0445-0.0796-0.0754s-0.0555-0.0633-0.0833-0.0971a0.75056 0.75056 0 0 1 -0.0741 -0.10883c-0.0216-0.0386-0.0444-0.0876-0.0685-0.14719-0.0238-0.0593-0.0418-0.11896-0.0542-0.17913-0.0123-0.0601-0.0193-0.11958-0.0208-0.17821-2e-3 -0.0586 0-0.10871 5e-3 -0.15041s0.0139-0.0887 0.0278-0.14119c0.0139-0.0525 0.0339-0.10804 0.0602-0.16662l0.0393-0.0879 2e-3 -6e-3 2e-3 -6e-3 1e-3 -6.6e-4 7.9e-4 -1e-3 7.9e-4 -1e-3 1e-3 -6.6e-4 1e-3 6.6e-4 8e-4 1e-3 7.9e-4 1e-3 1e-3 6.6e-4 1e-3 6.7e-4 8e-4 1e-3 7.9e-4 1e-3 1e-3 6.6e-4 2e-3 4e-3 2e-3 4e-3 1e-3 6.6e-4 7.9e-4 1e-3 0.0625 0.0695c0.0416 0.0463 0.091 0.098 0.14812 0.15507 0.0571 0.0571 0.0887 0.0867 0.0949 0.0888 6e-3 2e-3 0.0139 0.0101 0.0232 0.0213 9e-3 0.0115 0.0401 0.0387 0.0926 0.082 0.0525 0.0432 0.12112 0.0933 0.20597 0.15043 0.0849 0.0571 0.17898 0.11341 0.28235 0.16895 0.10337 0.0555 0.21446 0.10567 0.33326 0.15042 0.1188 0.0447 0.20212 0.0741 0.24994 0.0879 0.0478 0.0139 0.1296 0.0316 0.24532 0.0533 0.11571 0.0216 0.20288 0.0354 0.26151 0.0416 0.0586 6e-3 0.0987 0.0101 0.12034 0.0113l0.0324 6.6e-4 -7.9e-4 -6e-3 -1e-3 -6e-3 -9e-3 -0.0579c-6e-3 -0.0386-9e-3 -0.0925-9e-3 -0.162s5e-3 -0.13346 0.0162-0.19209c0.0108-0.0587 0.027-0.11803 0.0486-0.17819 0.0216-0.0601 0.0427-0.1085 0.0634-0.14488 0.021-0.036 0.0485-0.0773 0.0824-0.12359 0.0339-0.0463 0.0779-0.0941 0.13192-0.14349 0.054-0.0493 0.11571-0.0933 0.18514-0.13191 0.0694-0.0386 0.13346-0.0679 0.19208-0.0879 0.0586-0.02 0.10801-0.0332 0.14812-0.0394 0.0401-6e-3 0.0602-0.0101 0.0602-0.0113z" fill="#aeccd4"/>
<circle cx="141.99" cy="184.32" r="5.1296" fill-opacity="0" stroke="#aeccd4" stroke-width=".51526"/>
<circle cx="161.97" cy="184.26" r="5.0804" fill-opacity="0" stroke="#aeccd4" stroke-width=".51031"/>
<circle cx="121.35" cy="184.3" r="5.1106" fill-opacity="0" stroke="#aeccd4" stroke-width=".51335"/>
<path d="m121.52 186.94v-2.5333h0.85035l0.12731-0.98728h-0.97766v-0.63035c0-0.28584 0.0794-0.48064 0.48931-0.48064l0.5228-1.8e-4v-0.883c-0.0905-0.012-0.40077-0.0388-0.76181-0.0388-0.75377 0-1.2698 0.46008-1.2698 1.305v0.72811h-0.85254v0.98727h0.85251v2.5333z" fill="#aeccd4" stroke="#1d90bf" stroke-opacity=".014925" stroke-width=".039243"/>
<path transform="matrix(.041362 0 0 .041362 159.88 181.54)" d="m100.14 47.884h-9.854c0.718 2.787 1.142 5.699 1.142 8.71 0 19.238-15.592 34.83-34.827 34.83-19.234 0-34.827-15.592-34.827-34.83 0-3.011 0.426-5.923 1.144-8.71h-9.855v47.893c0 2.401 1.95 4.35 4.358 4.35h78.361a4.354 4.354 0 0 0 4.358 -4.35zm0-30.473a4.355 4.355 0 0 0 -4.358 -4.353h-13.058a4.354 4.354 0 0 0 -4.354 4.353v13.063a4.353 4.353 0 0 0 4.354 4.353h13.058a4.355 4.355 0 0 0 4.358 -4.353zm-43.54 17.416c-12.023 0-21.768 9.744-21.768 21.767 0 12.021 9.745 21.77 21.768 21.77s21.77-9.749 21.77-21.77c0-12.023-9.747-21.767-21.77-21.767m43.54 78.365h-87.078c-7.211 0-13.058-5.849-13.058-13.066v-87.068c0-7.212 5.847-13.058 13.058-13.058h87.078c7.212 0 13.058 5.846 13.058 13.058v87.068c-1e-3 7.217-5.846 13.066-13.058 13.066" clip-path="url(#a)" clip-rule="evenodd" fill="#aeccd4" fill-rule="evenodd"/>
<g transform="matrix(.018977 0 0 .018977 159.79 182.02)" fill="#aeccd4">
<path d="m226.47 256h-196.94c-16.309 0-29.532-13.228-29.532-29.548v-196.92c0-16.311 13.224-29.533 29.532-29.533h196.94c16.311 0 29.532 13.222 29.532 29.533v196.92c0 16.32-13.221 29.548-29.532 29.548zm-98.469-177.23c-27.192 0-49.231 22.037-49.231 49.229 0 27.187 22.04 49.236 49.231 49.236 27.192 0 49.236-22.049 49.236-49.236 0-27.192-22.044-49.229-49.236-49.229zm98.469-39.389c0-5.4347-4.4102-9.8449-9.8562-9.8449h-29.532c-5.4392 0-9.8448 4.4102-9.8448 9.8449v29.544c0 5.4347 4.4056 9.8449 9.8448 9.8449h29.532c5.446 0 9.8562-4.4102 9.8562-9.8449zm0 68.919h-22.286c1.6238 6.3032 2.5828 12.889 2.5828 19.699 0 43.51-35.263 78.771-78.766 78.771-43.5 0-78.766-35.261-78.766-78.771 0-6.8098 0.96345-13.396 2.5873-19.699h-22.288v108.32c0 5.4302 4.4102 9.8382 9.8562 9.8382h177.22c5.446 0 9.8562-4.4079 9.8562-9.8382z" fill="#aeccd4"/>
</g>
</g>
</svg>
